<svg width="240" height="240" fill="none" xmlns="http://www.w3.org/2000/svg"><path fill-rule="evenodd" clip-rule="evenodd" d="M128.57 0h-17.14v75.9L82.99 5.53 67.1 11.95l29.17 72.2-55.06-55.06L29.09 41.2l52.77 52.77-68.4-29.88-6.85 15.71 72.36 31.62H0v17.14h78.97L6.61 160.2l6.86 15.7 68.4-29.87-52.78 52.77 12.12 12.12 55.06-55.06-29.17 72.2 15.9 6.42 28.43-70.37V240h17.14v-75.9l28.44 70.37 15.89-6.42-29.17-72.2 55.06 55.06 12.12-12.12-52.77-52.77 68.4 29.88 6.85-15.71-72.36-31.62H240v-17.14h-78.97l72.36-31.62-6.86-15.7-68.4 29.87 52.78-52.77-12.12-12.12-55.06 55.06 29.17-72.2L157 5.53 128.58 75.9V0Z" fill="#E94D35"/></svg>