<svg width="16" height="16" fill="none" xmlns="http://www.w3.org/2000/svg"><path d="M8 5.75a2.25 2.25 0 1 0 0 4.5 2.25 2.25 0 0 0 0-4.5Zm0-1.5a3.75 3.75 0 1 1 0 7.5 3.75 3.75 0 0 1 0-7.5Zm4.88-.19a.94.94 0 1 1-1.88 0 .94.94 0 0 1 1.88 0ZM8 2c-1.86 0-2.16 0-3.02.04-.59.03-.98.11-1.35.25-.33.13-.56.28-.81.53-.23.23-.42.5-.53.81-.14.37-.22.76-.25 1.35A51.9 51.9 0 0 0 2 8c0 1.86 0 2.16.04 3.02.03.59.11.99.25 1.35.13.33.28.56.53.81s.49.4.8.53c.38.14.77.22 1.36.25C5.8 14 6.1 14 8 14c1.86 0 2.16 0 3.02-.04.59-.03.98-.1 1.35-.25.32-.13.56-.28.81-.53s.4-.48.53-.8c.14-.38.22-.77.25-1.36C14 10.2 14 9.91 14 8c0-1.85 0-2.16-.04-3.02-.03-.59-.11-.98-.25-1.35-.12-.3-.3-.58-.53-.8-.23-.24-.5-.42-.81-.54a4.07 4.07 0 0 0-1.35-.25A51.9 51.9 0 0 0 8 2ZM8 .5c2.04 0 2.3 0 3.1.05.79.03 1.33.16 1.81.34.5.2.91.45 1.33.87.38.37.68.83.87 1.33.18.48.3 1.02.35 1.82.03.8.04 1.05.04 3.1 0 2.03 0 2.28-.04 3.08-.04.8-.17 1.35-.35 1.82-.2.5-.49.96-.87 1.33-.37.38-.83.68-1.33.87-.48.18-1.02.3-1.82.35-.8.03-1.05.04-3.09.04s-2.3 0-3.1-.04a5.54 5.54 0 0 1-1.81-.35c-.5-.2-.96-.49-1.33-.87a3.68 3.68 0 0 1-.87-1.33 5.52 5.52 0 0 1-.34-1.82C.5 10.3.5 10.04.5 8s0-2.3.05-3.1C.58 4.12.7 3.58.89 3.1c.2-.5.49-.96.87-1.33.37-.38.83-.68 1.33-.87A5.52 5.52 0 0 1 4.9.55C5.7.5 5.96.5 8 .5Z" fill="#BDB8AD"/></svg>