<svg width="98" height="16" fill="none" xmlns="http://www.w3.org/2000/svg"><g clip-path="url(#a)" fill="#131416"><path fill-rule="evenodd" clip-rule="evenodd" d="M20 .01.13 7.93a.2.2 0 0 0-.1.09.2.2 0 0 0-.03.11.2.2 0 0 0 .13.19l5.9 2.13c.03.02.07.02.1.01l.1-.03L17.4 2.25a.02.02 0 0 1 .02 0l.02.01v.04l-9.91 8.63a.21.21 0 0 0-.05.08.2.2 0 0 0-.02.08v4.6c0 .04.01.08.04.12.02.03.05.06.1.07a.2.2 0 0 0 .22-.06l2.86-3.53a.2.2 0 0 1 .1-.07.2.2 0 0 1 .12 0l3.65 1.32c.05.02.1.02.15 0a.21.21 0 0 0 .1-.1L20.28.28a.2.2 0 0 0 0-.12.2.2 0 0 0-.05-.1.2.2 0 0 0-.21-.05"/><path d="M26.28 1.6h-1.8l.03 10.97h1.8l-.03-10.96ZM31.94 4.68c-.9 0-1.74.33-2.26.99v-.82h-1.7l.03 7.72h1.69l-.01-5.11a2.02 2.02 0 0 1 1.89-1.23c1.07 0 1.7.77 1.7 2v4.34h1.7l-.01-4.62c0-2-1.18-3.26-3.03-3.25M41.97 4.81l-2.34 5.42-2.35-5.4H35.4l3.5 7.71h1.49l3.47-7.73h-1.89ZM48.07 4.65a3.98 3.98 0 0 0-3.1 6.4 3.98 3.98 0 1 0 3.1-6.4Zm.01 6.45c-1.37 0-2.32-1.06-2.33-2.43 0-1.38.95-2.44 2.32-2.46 1.38 0 2.31 1.07 2.32 2.44 0 1.37-.95 2.44-2.3 2.44v.01ZM55 4.78h-1.68l.02 7.72h1.69L55 4.78ZM55 1.8h-1.68v1.57H55V1.8ZM60.4 6.19a2.3 2.3 0 0 1 2.12 1.35l1.47-.8a4 4 0 0 0-3.6-2.13 3.96 3.96 0 0 0-4.04 4.03 3.96 3.96 0 0 0 4.08 4.01 3.97 3.97 0 0 0 3.58-2.14l-1.48-.8a2.3 2.3 0 0 1-2.1 1.36c-1.37 0-2.35-1.06-2.35-2.44 0-1.37.97-2.44 2.34-2.45M68.9 4.6a3.9 3.9 0 0 0-4 4.02 3.87 3.87 0 0 0 4.02 4c1.61 0 2.82-.7 3.5-1.8l-1.28-.92a2.43 2.43 0 0 1-2.2 1.18c-1.27 0-2.3-.82-2.37-2.1h6.04l.01-.56c0-2.49-1.7-3.83-3.72-3.82Zm-2.26 3.15c.22-1.15 1.22-1.72 2.2-1.72a2 2 0 0 1 2.08 1.7l-4.28.02ZM93.99 4.53h-.06a3.97 3.97 0 0 0-4 4v.03a3.99 3.99 0 0 0 4.02 4h.03a3.95 3.95 0 0 0 4.01-4v-.02a3.98 3.98 0 0 0-4-4ZM93.97 11c-1.37 0-2.33-1.06-2.33-2.43s.95-2.44 2.32-2.45c1.36-.01 2.31 1.06 2.31 2.43 0 1.38-.95 2.44-2.3 2.45ZM87 4.7v.71a3.1 3.1 0 0 0-2.27-.86 3.81 3.81 0 0 0-3.86 3.9 3.81 3.81 0 0 0 3.87 3.88c.93 0 1.73-.33 2.26-.9v.9c0 1.21-.65 1.85-1.54 2.05-2.2.4-3.57-.27-3.57-.27l-.54 1.39c.79.49 3.23.63 4.36.38 1.63-.29 3-1.36 2.99-3.53l-.02-7.65H87Zm0 4.98a2.33 2.33 0 0 1-2.05 1.08c-1.34 0-2.32-1-2.33-2.32a2.27 2.27 0 0 1 2.32-2.34A2.36 2.36 0 0 1 87 7.16v2.52ZM75.77 11l2.31-3.15c.47-.6 1.21-1.63 1.35-1.86.64-1.06.72-2.18.16-3.3-.45-.9-1.26-1.35-2.25-1.47A3.38 3.38 0 0 0 73.85 3c-.15.3-.25.6-.3.93l1.49.32.06-.16a1.87 1.87 0 0 1 1.04-1.23 1.76 1.76 0 0 1 1.73.21c.7.61.7 1.64.18 2.3l-4.46 5.7a.26.26 0 0 0-.07.17v1.24l6.5-.01v-1.48h-4.25Z"/></g><defs><clipPath id="a"><path fill="#fff" d="M0 0h98v16H0z"/></clipPath></defs></svg>