<svg width="122" height="12" fill="none" xmlns="http://www.w3.org/2000/svg"><g clip-path="url(#a)" fill="#131416"><path d="M12.34 4.08c0-1.99-1.33-3.8-3.86-3.81L0 .25v11.52h2.02V7.93h5.34l3.12 3.84h2.4v-.15L9.64 7.7c2.03-.45 2.7-2.04 2.7-3.62ZM2.03 5.97V2.29h6.46c1.27 0 1.84.92 1.84 1.84s-.55 1.84-1.84 1.84H2.03ZM26.32.25l-8.44.02v11.5h2.02V8.4h6.42c5.25 0 5.23-8.14 0-8.14Zm0 6.15H19.9V2.32h6.42c2.57 0 2.59 4.08 0 4.08ZM63.2 5.82c1-.48 1.39-1.33 1.39-2.22C64.59 1.3 63 .27 60.9.27h-8.46v11.5h8.46c2.22 0 4-.82 4-3.38 0-.73-.45-2.16-1.7-2.57Zm-8.78-3.58h6.48c1.29 0 1.68.89 1.68 1.41 0 .66-.4 1.24-1.68 1.24h-6.48V2.24Zm6.48 7.51h-6.48V6.8h6.48c.83 0 2 .54 2 1.58 0 1.08-1.16 1.38-2 1.38M71.76.27h-2.02v11.5h10.91v-2h-8.9V.27ZM87.5.27h-2v11.5h2V.27ZM102.63 8.6c-.3.3-.62.56-.98.77a5.24 5.24 0 0 1-2.81.71c-.68.01-1.36-.1-2-.32-.53-.2-1.03-.5-1.45-.9a3.73 3.73 0 0 1-.89-1.3 4.16 4.16 0 0 1 .89-4.44c.42-.4.92-.7 1.45-.89a5.76 5.76 0 0 1 2-.31 6.1 6.1 0 0 1 2.7.63 4.03 4.03 0 0 1 1.45 1.3l1.7-1.02a6.12 6.12 0 0 0-3.72-2.6A8.22 8.22 0 0 0 98.95 0a7.93 7.93 0 0 0-2.88.5c-.78.28-1.5.72-2.12 1.3a5.94 5.94 0 0 0 0 8.39 6.3 6.3 0 0 0 2.12 1.31c.92.34 1.9.51 2.86.5.7 0 1.4-.08 2.1-.25a6.72 6.72 0 0 0 3.02-1.76c.29-.3.54-.64.75-1l-1.7-1.02c-.14.23-.3.44-.47.63M43.9.25a1.62 1.62 0 0 0-1.22.55 1.87 1.87 0 0 0-.5 1.31h3.22v3.97a8.53 8.53 0 0 1-.33 1.55c-.2.5-.5.95-.88 1.32-.43.4-.92.7-1.46.89a4.21 4.21 0 0 1-3.31 0c-.54-.2-1.03-.5-1.46-.9a3.73 3.73 0 0 1-.88-1.3 8.55 8.55 0 0 1-.33-1.56V.25h-1.99v5.83c0 .8.15 1.58.45 2.3.3.73.75 1.37 1.3 1.9a6.3 6.3 0 0 0 2.12 1.3c1.59.55 3.3.55 4.88 0a6.3 6.3 0 0 0 2.12-1.31 5.88 5.88 0 0 0 1.76-4.2V.25H43.9ZM114.5 2.16l-4.71 9.61h-2l5.6-11.43V.27h2.97l5.64 11.5h-2l-1.2-2.43h-3.6a1.67 1.67 0 0 1-1.25-.56 2.02 2.02 0 0 1-.52-1.35h4.42l-2.58-5.27h-.77Z"/></g><defs><clipPath id="a"><path fill="#fff" d="M0 0h122v12H0z"/></clipPath></defs></svg>