<svg width="72" height="16" fill="none" xmlns="http://www.w3.org/2000/svg"><path d="M17.67 3.33 13.37.4a2.23 2.23 0 0 0-2.51 0l-1.4.96-1.53 1.04-1.38.94c-.28.2-.5.45-.66.74-.16.3-.25.63-.25.96v5.96a.48.48 0 0 1-.2.4l-1.5.98 1.43.98 1.01-.67a2.01 2.01 0 0 0 .9-1.7V5.04a.49.49 0 0 1 .23-.4l4.3-2.95a.53.53 0 0 1 .6 0l1.12.77 1.43.97 1.76 1.2c.06.05.12.1.16.18.03.07.05.15.05.22V11c0 .08-.02.15-.05.23a.5.5 0 0 1-.16.17l-4.3 2.93a.55.55 0 0 1-.65-.02l-.81-.5-1.45 1 1.35.81a2.23 2.23 0 0 0 2.5 0l4.31-2.94a2.01 2.01 0 0 0 .9-1.69V5.04c0-.34-.07-.66-.23-.96a2.1 2.1 0 0 0-.67-.74Z" fill="#131416"/><path d="m10.64 13.62 1.39-.95a2.02 2.02 0 0 0 .9-1.69V5.04a.48.48 0 0 1 .21-.4l1.5-.99-1.44-.98-1 .67a2.01 2.01 0 0 0-.9 1.7v5.96c-.01.08-.03.15-.07.22a.5.5 0 0 1-.16.18l-4.3 2.93a.53.53 0 0 1-.6 0l-1.12-.77-1.43-.97-1.75-1.2a.5.5 0 0 1-.16-.17.48.48 0 0 1-.06-.22V5.03a.5.5 0 0 1 .22-.4l4.3-2.95a.55.55 0 0 1 .64.02l.8.49 1.46-1L7.73.4a2.23 2.23 0 0 0-2.51 0L.9 3.33a2.01 2.01 0 0 0-.9 1.7v5.96c-.01.33.07.65.23.95.16.3.39.55.67.74l4.3 2.94a2.23 2.23 0 0 0 2.51 0l1.47-1 1.45-1ZM28.51 1.88h-3.2V3.7c0 .21-.1.4-.24.55a.84.84 0 0 1-.57.24l-.85.02v2.44h1.65v4.37c0 2.76 1.14 3.65 5.9 3.35v-2.5c-2.42.24-2.6-.4-2.6-1.17V6.94h2.6V4.46h-2.69V1.88ZM41.42.22c-1.16 0-1.8.25-1.8 1.56s.64 1.56 1.8 1.56c1.14 0 1.74-.28 1.74-1.56 0-1.32-.6-1.56-1.74-1.56ZM43.04 4.46h-3.25V14.6h3.25V4.46ZM51.4 4.28c-1.64 0-2.67.54-3.17 1.15V.55h-3.2v14.04H45.26c.36 0 .71-.1 1.02-.3.3-.18.54-.44.69-.76.03-.06.07-.1.12-.14a.37.37 0 0 1 .49.07 3.81 3.81 0 0 0 2.69 1.26c.25.03.5.05.76.05 1.84 0 3.01-.75 3.71-1.83l.11-.18.08-.13.14-.3.04-.07.14-.37.02-.04.12-.4.01-.05.08-.35.02-.14.02-.11c.07-.43.1-.86.1-1.3 0-2.6-.97-5.22-4.23-5.22Zm-1.1 7.93c-1.8 0-2.1-1.1-2.1-2.7 0-1.55.24-2.69 2.08-2.69 1.76 0 2.05 1.12 2.05 2.69 0 1.58-.3 2.7-2.03 2.7ZM61.76 4.28c-3.85 0-4.76 1.5-4.76 3.66h3.15c0-.82.37-1.41 1.7-1.41 1.4 0 1.86.61 1.86 1.78l-2.78.28c-2.96.3-4.34 1.11-4.34 3.06 0 2.13 1.9 3.12 4.38 3.12 1.61 0 2.67-.45 3.4-1.3a.37.37 0 0 1 .5-.07c.05.04.09.09.11.14.15.31.4.58.7.77.3.18.65.28 1 .28h.25V8.85c0-2.62-.67-4.57-5.17-4.57Zm-.13 8.3c-1.18 0-1.67-.43-1.67-1.05 0-.48.4-.83 1.67-.95l2.07-.24c-.02 1.25-.62 2.24-2.07 2.24ZM72 .55h-3.23v14.04H72V.55ZM38.68 4.27h-.3a3.81 3.81 0 0 0-3.1 1.29.38.38 0 0 1-.5.06.35.35 0 0 1-.1-.13c-.15-.31-.4-.58-.7-.76-.3-.19-.65-.29-1.01-.29h-.25V14.6h3.22V9.41c0-1.35.37-2.64 2.8-2.4V4.3h-.05v-.04Z" fill="#131416"/></svg>