<svg width="104" height="12" fill="none" xmlns="http://www.w3.org/2000/svg"><g clip-path="url(#a)" fill="#131416"><path d="M4.76 11.81 0 .2h2.44l3.48 8.67L9.43.2h2.44L7.08 11.82H4.76ZM13.97 4.98h7.15a3.75 3.75 0 0 0-3.55-2.77 3.58 3.58 0 0 0-2.31.77 3.73 3.73 0 0 0-1.29 2Zm-.72 5.28a5.79 5.79 0 0 1-1.76-4.23 5.82 5.82 0 0 1 1.74-4.26A5.72 5.72 0 0 1 17.5 0a6.17 6.17 0 0 1 5.6 3.5c.33.72.5 1.5.5 2.29 0 .35-.02.7-.07 1.04h-9.57a3.08 3.08 0 0 0 1.13 2.13 3.6 3.6 0 0 0 2.4.82 3.75 3.75 0 0 0 2.84-1.16l2.77.03c-.52 1-1.3 1.84-2.28 2.43a6.1 6.1 0 0 1-3.26.92 5.96 5.96 0 0 1-4.32-1.74ZM25.18 11.81V5.75c0-1.86.46-3.26 1.38-4.2a4.77 4.77 0 0 1 3.6-1.4h.25v2.2h-.24c-1.77 0-2.65 1.14-2.65 3.4v6.06h-2.34ZM37.34 2.2A3.71 3.71 0 0 0 33.5 6a3.87 3.87 0 0 0 2.34 3.53c.46.19.97.28 1.47.27A3.64 3.64 0 0 0 40 8.7a3.92 3.92 0 0 0 0-5.38 3.58 3.58 0 0 0-2.69-1.1l.03-.01ZM33 1.75a6.17 6.17 0 0 1 10.2 2.5 5.9 5.9 0 0 1-.2 4.04 6.05 6.05 0 0 1-2.77 3 6.22 6.22 0 0 1-7.62-1.47 5.94 5.94 0 0 1 .4-8.07ZM55.45 11.81H52.8l-3.06-4.16-3.05 4.16H44l4.4-6.04L44.38.19H47l2.72 3.72L52.49.19h2.63l-4.05 5.58 4.38 6.04ZM58.15 11.78v-3.9h-2.13V6.55h2.13v-.41l.04-1.42a5.34 5.34 0 0 1 1.36-3.33 4.77 4.77 0 0 1 3.08-1.4v1.43c-.77.11-1.48.48-2.02 1.05a3.6 3.6 0 0 0-.91 2.25l-.05 1.42v.41h3.73V7.9h-3.72v3.9l-1.51-.01ZM67.3.19H65.8v11.63h1.52V.19ZM79.22 2.75a4.38 4.38 0 0 0-3.26-1.32A4.53 4.53 0 0 0 71.34 6a4.62 4.62 0 0 0 7.86 3.28 4.7 4.7 0 0 0 0-6.52h.02Zm-7.6-1A6.17 6.17 0 0 1 81.8 4.23a5.9 5.9 0 0 1-.2 4.04 6.05 6.05 0 0 1-2.77 3 6.22 6.22 0 0 1-7.62-1.47 5.94 5.94 0 0 1 .4-8.07ZM93.93 2.75a4.38 4.38 0 0 0-3.26-1.32A4.53 4.53 0 0 0 86.05 6a4.62 4.62 0 0 0 7.85 3.28 4.7 4.7 0 0 0 0-6.52h.03Zm-7.6-1a6.17 6.17 0 0 1 10.19 2.49 5.9 5.9 0 0 1-.2 4.04 6.05 6.05 0 0 1-2.77 3 6.22 6.22 0 0 1-7.62-1.47 5.94 5.94 0 0 1 .4-8.07ZM98.55 11.81V5.8c0-1.88.44-3.29 1.31-4.24a4.55 4.55 0 0 1 3.89-1.4v1.43a3.05 3.05 0 0 0-2.78 1.05c-.6.7-.9 1.76-.9 3.16v6.02h-1.52ZM102.45 10.52h.26c.08.01.17 0 .25-.05a.16.16 0 0 0 .05-.07.15.15 0 0 0 .01-.07.17.17 0 0 0-.03-.1.2.2 0 0 0-.09-.07.74.74 0 0 0-.21-.02h-.24v.38Zm-.21.73V9.96h.45c.12 0 .23 0 .34.04a.34.34 0 0 1 .23.3c0 .05 0 .1-.03.14a.32.32 0 0 1-.07.12.41.41 0 0 1-.28.11l.12.07.19.25.16.26h-.26l-.12-.2a.98.98 0 0 0-.22-.3.26.26 0 0 0-.17-.05h-.13v.55h-.21Zm.53-1.66a1.04 1.04 0 0 0-.88.5.97.97 0 0 0 0 1c.09.15.22.27.38.36a1.01 1.01 0 0 0 1 0 .94.94 0 0 0 .38-.37 1 1 0 0 0-.86-1.5h-.02Zm0-.2c.21 0 .42.06.6.15.2.1.35.26.45.45a1.16 1.16 0 0 1 0 1.2c-.1.18-.25.33-.44.43a1.26 1.26 0 0 1-1.21 0c-.19-.1-.34-.26-.44-.45a1.18 1.18 0 0 1 1.06-1.78h-.02Z"/></g><defs><clipPath id="a"><path fill="#fff" d="M0 0h104v12H0z"/></clipPath></defs></svg>